# xmcd CD database file
#
# Track frame offsets:
#	150
#	16147
#	42465
#	58582
#	91481
#	118194
#	146470
#	175435
#	190735
#	213807
#	255573
#	275356
#	302636
#
# Disc length: 4534 seconds
#
# Revision: 2
# Processed by: cddbd v1.5.2PL0 Copyright (c) Steve Scherf et al.
# Submitted via: CDex 1.70beta2
#
DISCID=b411b40d
DTITLE=Roy Buchanan - Unknown CD for MusicBrainz and FreeDB
DYEAR=2006
DGENRE=Folk-Rock
TTITLE0=Baltimore
TTITLE1=The Story Of Isaac
TTITLE2=Sweet Dreams
TTITLE3=Pete's Blue
TTITLE4=The Messiah Will Come Again
TTITLE5=After Hours
TTITLE6=Five String Blues
TTITLE7=My Baby Says She's Gonna Leave Me
TTITLE8=Wayfaring Pilgrim
TTITLE9=Down By The River (Live)
TTITLE10=I'm a Ram (Live)
TTITLE11=I'm Evil (Live)
TTITLE12=Hey Joe (Live)
EXTD=YEAR: 2006
EXTT0=
EXTT1=
EXTT2=
EXTT3=
EXTT4=
EXTT5=
EXTT6=
EXTT7=
EXTT8=
EXTT9=
EXTT10=
EXTT11=
EXTT12=
PLAYORDER=
